# xmcd
#
# Track frame offsets:
# 150
# 25654
# 45353
# 70892
# 94484
# 109673
# 131214
# 158045
# 173226
# 187314
# 206063
# 226755
# 246895
# 264901
#
# Disc length: 3842 seconds
#
#
# Revision: 3
# Processed by: cddbd v1.5.2PL0 Copyright (c) Steve Scherf et al.
# Submitted via: FreeRIP 2.96 
#
DISCID=c00f000e
DTITLE=Daniel - Ao Vivo 2005
DYEAR=2005
DGENRE=Setanejo
TTITLE0=Te Amo Cada Vez Mais
TTITLE1=Desejo de Amar
TTITLE2=Os Amantes
TTITLE3=Pout pourri - Que Era Eu - Um Homem Apaixonado - Declaracao de Amor
TTITLE4=Memorias de Uma Paixao
TTITLE5=Quando Eu Quero Falar com Deus
TTITLE6=Pout pourri - Rosto Molhado - Sombra Boa e Agua Fresca - Cabelo Loiro
TTITLE7=Jogado na Rua
TTITLE8=Vou de Fusca
TTITLE9=Em Qualquer Lugar do Mundo
TTITLE10=Querida
TTITLE11=Filho Adotivo
TTITLE12=Eu Sem Voce
TTITLE13=Puot pourri - Direto no Coracao - Fricote
EXTD=dajk
EXTT0=
EXTT1=
EXTT2=
EXTT3=
EXTT4=
EXTT5=
EXTT6=
EXTT7=
EXTT8=
EXTT9=
EXTT10=
EXTT11=
EXTT12=
EXTT13=
PLAYORDER=
